<svg width="7" height="10" viewBox="0 0 7 10" fill="none" xmlns="http://www.w3.org/2000/svg">
<path d="M1.92578 8.98687L1.92581 8.98684L5.96961 5.389C5.96963 5.38899 5.96965 5.38897 5.96966 5.38895C6.0818 5.28926 6.15 5.15153 6.15 5.00225C6.15 4.85294 6.08177 4.71519 5.96961 4.61549L1.92652 1.01788C1.86947 0.9659 1.8021 0.925103 1.72893 0.89678C1.65539 0.868318 1.57665 0.852694 1.49712 0.850319C1.41758 0.847945 1.33793 0.858841 1.26257 0.882721C1.18721 0.9066 1.1168 0.943263 1.05588 0.991605C0.994918 1.03998 0.944258 1.09944 0.908323 1.16744C0.872318 1.23557 0.852155 1.31033 0.850163 1.38717C0.848171 1.46403 0.864443 1.53971 0.897068 1.60948C0.929475 1.67879 0.976995 1.74017 1.03536 1.79088L4.64428 5.00223L1.03469 8.2134C1.03468 8.21341 1.03467 8.21342 1.03467 8.21343C0.977137 8.26459 0.93053 8.32623 0.899032 8.39562C0.867471 8.46514 0.852078 8.54031 0.854643 8.61649C0.857207 8.69265 0.877611 8.76666 0.913537 8.83408C0.949398 8.90138 0.999694 8.96025 1.06012 9.00823C1.12051 9.05619 1.19022 9.09266 1.26485 9.11658C1.33948 9.1405 1.41838 9.15167 1.49725 9.1498C1.57613 9.14792 1.65432 9.13302 1.72752 9.10548C1.80072 9.07794 1.86828 9.03799 1.92578 8.98687Z" fill="url(#paint0_linear_243_1189)" stroke="url(#paint1_linear_243_1189)" stroke-width="0.3"/>
<defs>
<linearGradient id="paint0_linear_243_1189" x1="7.5" y1="9" x2="-1" y2="1" gradientUnits="userSpaceOnUse">
<stop stop-color="#7E43DF"/>
<stop offset="1" stop-color="#00D1FF"/>
</linearGradient>
<linearGradient id="paint1_linear_243_1189" x1="8" y1="9" x2="-1" y2="1" gradientUnits="userSpaceOnUse">
<stop stop-color="#7E43DF"/>
<stop offset="1" stop-color="#00D1FF"/>
</linearGradient>
</defs>
</svg>
