<svg width="10" height="6" viewBox="0 0 10 6" fill="none" xmlns="http://www.w3.org/2000/svg">
<path d="M1.01313 1.42578L1.01316 1.42581L4.611 5.46961C4.61101 5.46963 4.61103 5.46965 4.61105 5.46966C4.71074 5.5818 4.84847 5.65 4.99775 5.65C5.14706 5.65 5.28481 5.58177 5.38451 5.46961L8.98211 1.42652C9.0341 1.36947 9.0749 1.3021 9.10322 1.22893C9.13168 1.15539 9.14731 1.07665 9.14968 0.997116C9.15205 0.91758 9.14116 0.837926 9.11728 0.762565C9.0934 0.687213 9.05674 0.616803 9.00839 0.555878C8.96002 0.494917 8.90056 0.444258 8.83256 0.408322C8.76443 0.372317 8.68967 0.352154 8.61282 0.350163C8.53597 0.34817 8.46029 0.364443 8.39052 0.397068C8.32121 0.429474 8.25983 0.476994 8.20912 0.535357L4.99777 4.14428L1.7866 0.534691C1.78659 0.534682 1.78658 0.534674 1.78657 0.534665C1.73541 0.477137 1.67377 0.43053 1.60438 0.399032C1.53486 0.367471 1.45969 0.352078 1.38351 0.354643C1.30735 0.357207 1.23334 0.377611 1.16592 0.413537C1.09862 0.449398 1.03974 0.499694 0.991765 0.560118C0.943814 0.620505 0.907337 0.690224 0.883417 0.764848C0.859495 0.839479 0.848327 0.918381 0.850202 0.997255C0.852077 1.07613 0.866979 1.15432 0.89452 1.22752C0.92206 1.30072 0.962009 1.36828 1.01313 1.42578Z" fill="#202020" stroke="#202020" stroke-width="0.3"/>
</svg>
