<svg width="15" height="15" viewBox="0 0 15 15" fill="none" xmlns="http://www.w3.org/2000/svg">
<path d="M2.25 14.25C1.83579 14.6642 1.16421 14.6642 0.75 14.25V14.25C0.335787 13.8358 0.335786 13.1642 0.75 12.75L6 7.5L0.75 2.25C0.335787 1.83579 0.335787 1.16421 0.75 0.75V0.75C1.16421 0.335787 1.83579 0.335786 2.25 0.75L7.5 6L12.75 0.75C13.1642 0.335787 13.8358 0.335787 14.25 0.75V0.75C14.6642 1.16421 14.6642 1.83579 14.25 2.25L9 7.5L14.25 12.75C14.6642 13.1642 14.6642 13.8358 14.25 14.25V14.25C13.8358 14.6642 13.1642 14.6642 12.75 14.25L7.5 9L2.25 14.25Z" fill="white"/>
</svg>
