<svg width="14" height="17" viewBox="0 0 14 17" fill="none" xmlns="http://www.w3.org/2000/svg">
<path d="M9.8374 4.45678C9.8374 6.07959 8.55621 7.35704 7.01553 7.35704C5.47485 7.35704 4.19365 6.0796 4.19365 4.45678C4.19365 2.83396 5.47485 1.55652 7.01553 1.55652C8.55621 1.55652 9.8374 2.83396 9.8374 4.45678ZM7.01553 11.0747C7.94252 11.0747 8.81033 10.8638 9.59118 10.5148H9.64928C11.2483 10.5148 12.5809 11.8448 12.5809 13.5271V14.5349C12.5809 14.919 12.2805 15.1956 11.9538 15.1956H2.07725C1.75056 15.1956 1.45016 14.919 1.45016 14.5349V13.5271C1.45016 11.8448 2.7828 10.5148 4.38178 10.5148H4.44062C5.22226 10.8632 6.0872 11.0747 7.01553 11.0747Z" stroke="#202020" stroke-width="2.03802"/>
</svg>
