<svg width="15" height="19" viewBox="0 0 15 19" fill="none" xmlns="http://www.w3.org/2000/svg">
<path d="M14.1187 17.873C14.2567 17.873 14.3687 17.761 14.3687 17.623L14.3687 6.67433C14.3687 6.53626 14.2567 6.42433 14.1187 6.42433L12.1511 6.42433C12.0131 6.42433 11.9011 6.53626 11.9011 6.67433L11.9011 17.623C11.9011 17.761 12.0131 17.873 12.1511 17.873L14.1187 17.873ZM8.6998 17.873C8.83787 17.873 8.9498 17.761 8.9498 17.623L8.9498 1.1C8.9498 0.961933 8.83787 0.850004 8.6998 0.850004L6.73225 0.850004C6.59418 0.850004 6.48225 0.961933 6.48225 1.1L6.48225 17.623C6.48225 17.761 6.59418 17.873 6.73225 17.873L8.6998 17.873ZM3.28093 17.873C3.419 17.873 3.53093 17.761 3.53093 17.623L3.53093 1.1C3.53093 0.961933 3.419 0.850004 3.28093 0.850004L1.31338 0.850004C1.17531 0.850004 1.06338 0.961933 1.06338 1.1L1.06338 17.623C1.06338 17.761 1.17531 17.873 1.31338 17.873L3.28093 17.873Z" fill="url(#paint0_linear_197_7547)" stroke="url(#paint1_linear_197_7547)" stroke-width="0.3"/>
<defs>
<linearGradient id="paint0_linear_197_7547" x1="0.708932" y1="1" x2="13.7286" y2="18.0004" gradientUnits="userSpaceOnUse">
<stop stop-color="#7E43DF"/>
<stop offset="1" stop-color="#00D1FF"/>
</linearGradient>
<linearGradient id="paint1_linear_197_7547" x1="0.708932" y1="1" x2="13.7286" y2="18.0004" gradientUnits="userSpaceOnUse">
<stop stop-color="#7E43DF"/>
<stop offset="1" stop-color="#00D1FF"/>
</linearGradient>
</defs>
</svg>
