<svg width="13" height="16" viewBox="0 0 13 16" fill="none" xmlns="http://www.w3.org/2000/svg">
<path d="M10.7645 15.6781L12.3633 15.6781C12.5646 15.6781 12.7278 15.5149 12.7278 15.3136L12.7278 5.88301C12.7278 5.68165 12.5646 5.51842 12.3633 5.51842L10.7645 5.51842C10.5631 5.51842 10.3999 5.68165 10.3999 5.88301L10.3999 15.3136C10.3999 15.5149 10.5631 15.6781 10.7645 15.6781ZM6.03842 15.6781L7.63718 15.6781C7.83854 15.6781 8.00177 15.5149 8.00177 15.3136L8.00177 1.0219C8.00177 0.820542 7.83854 0.657313 7.63718 0.657313L6.03842 0.657313C5.83706 0.657313 5.67383 0.820542 5.67383 1.0219L5.67383 15.3136C5.67383 15.5149 5.83706 15.6781 6.03842 15.6781ZM1.31234 15.6781L2.9111 15.6781C3.11246 15.6781 3.27569 15.5149 3.27569 15.3136L3.27569 1.0219C3.27569 0.820542 3.11246 0.657313 2.9111 0.657313L1.31234 0.657313C1.11098 0.657313 0.947753 0.820542 0.947753 1.0219L0.947754 15.3136C0.947754 15.5149 1.11098 15.6781 1.31234 15.6781Z" fill="#202020" stroke="#202020" stroke-width="0.4375"/>
</svg>
