<svg width="11" height="14" viewBox="0 0 11 14" fill="none" xmlns="http://www.w3.org/2000/svg">
<path d="M9.90024 13.15C10.0383 13.15 10.1502 13.0381 10.1502 12.9L10.1502 5.1C10.1502 4.96193 10.0383 4.85 9.90024 4.85L8.60024 4.85C8.46217 4.85 8.35024 4.96193 8.35024 5.1L8.35024 12.9C8.35024 13.0381 8.46217 13.15 8.60024 13.15L9.90024 13.15ZM6.15024 13.15C6.28832 13.15 6.40024 13.0381 6.40024 12.9L6.40024 1.1C6.40024 0.961931 6.28832 0.85 6.15024 0.85L4.85024 0.85C4.71217 0.85 4.60024 0.96193 4.60024 1.1L4.60024 12.9C4.60024 13.0381 4.71217 13.15 4.85024 13.15L6.15024 13.15ZM2.40024 13.15C2.53832 13.15 2.65024 13.0381 2.65024 12.9L2.65024 1.1C2.65024 0.96193 2.53832 0.85 2.40024 0.85L1.10024 0.85C0.962171 0.85 0.850244 0.96193 0.850244 1.1L0.850244 12.9C0.850244 13.0381 0.962173 13.15 1.10024 13.15L2.40024 13.15Z" fill="white" stroke="white" stroke-width="0.3"/>
</svg>
