<svg width="20" height="20" viewBox="0 0 20 20" fill="none" xmlns="http://www.w3.org/2000/svg">
<path d="M18.682 10C19.4099 10 20.0089 9.4074 19.9133 8.68581C19.7129 7.17402 19.1684 5.72196 18.3147 4.4443C17.2159 2.79981 15.6541 1.51808 13.8268 0.761205C11.9996 0.00432834 9.98891 -0.193705 8.0491 0.192147C6.10929 0.577999 4.32746 1.53041 2.92893 2.92893C1.53041 4.32746 0.577999 6.10929 0.192147 8.0491C-0.193705 9.98891 0.00432836 11.9996 0.761205 13.8268C1.51808 15.6541 2.79981 17.2159 4.4443 18.3147C5.72196 19.1684 7.17402 19.7129 8.68581 19.9133C9.4074 20.0089 10 19.4099 10 18.682V18.682C10 17.9541 9.4053 17.376 8.68903 17.2464C7.69958 17.0674 6.75252 16.6868 5.90875 16.123C4.69774 15.3138 3.75387 14.1637 3.1965 12.8181C2.63913 11.4725 2.4933 9.99183 2.77744 8.56334C3.06158 7.13486 3.76294 5.82271 4.79282 4.79282C5.82271 3.76294 7.13486 3.06158 8.56334 2.77744C9.99183 2.4933 11.4725 2.63913 12.8181 3.1965C14.1637 3.75387 15.3138 4.69774 16.123 5.90875C16.6868 6.75252 17.0674 7.69958 17.2464 8.68903C17.376 9.4053 17.9541 10 18.682 10V10Z" fill="#F9F9F9"/>
</svg>
