<svg width="14" height="16" viewBox="0 0 14 16" fill="none" xmlns="http://www.w3.org/2000/svg">
<path d="M9.44547 5.25383L9.44544 5.25385L9.44768 5.25621L11.4695 7.39073H6.17146C5.9978 7.39073 5.83126 7.45971 5.70847 7.58251C5.58568 7.7053 5.5167 7.87184 5.5167 8.04549C5.5167 8.21915 5.58568 8.38569 5.70847 8.50848C5.83126 8.63127 5.9978 8.70025 6.17146 8.70025H11.4695L9.44768 10.8348L9.44765 10.8347L9.44547 10.8372C9.33073 10.9639 9.27013 11.1306 9.27665 11.3015C9.28316 11.4723 9.35627 11.6339 9.48034 11.7516C9.6044 11.8692 9.76958 11.9337 9.94057 11.9312C10.1115 11.9287 10.2748 11.8594 10.3953 11.7381L10.3953 11.7381L10.3977 11.7356L13.4669 8.49597C13.5822 8.37433 13.6465 8.2131 13.6465 8.04549C13.6465 7.87788 13.5822 7.71665 13.4669 7.59502L10.3977 4.35535L10.3977 4.35532L10.3953 4.35288C10.2748 4.2316 10.1115 4.16229 9.94057 4.15978C9.76958 4.15726 9.6044 4.22174 9.48034 4.33942C9.35627 4.4571 9.28316 4.61865 9.27665 4.78952C9.27013 4.9604 9.33073 5.12704 9.44547 5.25383ZM2.0792 0.740804C1.34124 0.740804 0.742391 1.33965 0.742391 2.07761V14.0134C0.742391 14.3679 0.883233 14.7079 1.13393 14.9586C1.38463 15.2093 1.72465 15.3502 2.0792 15.3502H5.83044C6.00409 15.3502 6.17063 15.2812 6.29342 15.1584C6.41621 15.0356 6.4852 14.8691 6.4852 14.6954C6.4852 14.5218 6.41621 14.3552 6.29342 14.2324C6.17063 14.1096 6.00409 14.0407 5.83044 14.0407H2.0792C2.06418 14.0407 2.05191 14.0284 2.05191 14.0134V2.07761C2.05191 2.07037 2.05479 2.06343 2.05991 2.05832C2.06502 2.0532 2.07196 2.05033 2.0792 2.05033H5.83044C6.00409 2.05033 6.17063 1.98134 6.29342 1.85855C6.41621 1.73576 6.4852 1.56922 6.4852 1.39557C6.4852 1.22191 6.41621 1.05537 6.29342 0.932579C6.17063 0.809788 6.00409 0.740804 5.83044 0.740804H2.0792Z" fill="url(#paint0_linear_36_278)" stroke="url(#paint1_linear_36_278)" stroke-width="0.286458"/>
<defs>
<linearGradient id="paint0_linear_36_278" x1="0.88562" y1="0.884033" x2="13.7762" y2="15.207" gradientUnits="userSpaceOnUse">
<stop stop-color="#7E43DF"/>
<stop offset="1" stop-color="#00D1FF"/>
</linearGradient>
<linearGradient id="paint1_linear_36_278" x1="0.88562" y1="0.884033" x2="13.7762" y2="15.207" gradientUnits="userSpaceOnUse">
<stop stop-color="#7E43DF"/>
<stop offset="1" stop-color="#00D1FF"/>
</linearGradient>
</defs>
</svg>
